<?xml version="1.0" encoding="iso-8859-1"?>
<!-- Generator: Adobe Illustrator 19.0.0, SVG Export Plug-In . SVG Version: 6.00 Build 0)  -->
<svg version="1.1" id="Layer_1" xmlns="http://www.w3.org/2000/svg" xmlns:xlink="http://www.w3.org/1999/xlink" x="0px" y="0px"  fill="#fff"
	width="31" height="31" viewBox="0 0 511.999 511.999" style="enable-background:new 0 0 511.999 511.999;" xml:space="preserve">
<g>
	<g>
		<path d="M356.467,51.756c-30.18,0-54.647,24.466-54.647,54.646h109.293C411.113,76.222,386.647,51.756,356.467,51.756z"/>
	</g>
</g>
<g>
	<g>
		<path d="M137.878,51.756c-30.18,0-54.647,24.466-54.647,54.648h109.294C192.526,76.222,168.06,51.756,137.878,51.756z"/>
	</g>
</g>
<g>
	<g>
		<path d="M247.172,51.756c-30.18,0-54.647,24.466-54.647,54.646H301.82C301.819,76.222,277.353,51.756,247.172,51.756z"/>
	</g>
</g>
<g>
	<g>
		<path d="M476.149,370.851H360.275c11.375-10.834,21.191-23.286,29.083-36.989h38.868c46.192,0,83.773-37.58,83.773-83.773
			c0-46.191-37.58-83.771-83.773-83.771h-17.113v-30.807H83.232v116.741c0,46.665,19.519,88.77,50.837,118.599H18.916
			C8.469,370.851,0,379.321,0,389.768c0,10.447,8.469,18.916,18.916,18.916h51.712l6.595,12.43
			c12.775,24.077,37.802,39.129,65.058,39.129h210.5c27.256,0,52.283-15.052,65.058-39.129l6.595-12.43h51.712
			c10.447,0,18.916-8.469,18.916-18.916C495.064,379.321,486.595,370.851,476.149,370.851z M411.113,252.254v-48.102h17.114v0
			c25.331,0,45.94,20.609,45.94,45.94c0,25.33-20.609,45.939-45.94,45.939h-23.041C409.043,282.095,411.113,267.417,411.113,252.254
			z"/>
	</g>
</g>
<g>
</g>
<g>
</g>
<g>
</g>
<g>
</g>
<g>
</g>
<g>
</g>
<g>
</g>
<g>
</g>
<g>
</g>
<g>
</g>
<g>
</g>
<g>
</g>
<g>
</g>
<g>
</g>
<g>
</g>
</svg>
