<?xml version="1.0" encoding="iso-8859-1"?>
<!-- Generator: Adobe Illustrator 16.0.0, SVG Export Plug-In . SVG Version: 6.00 Build 0)  -->
<!DOCTYPE svg PUBLIC "-//W3C//DTD SVG 1.1//EN" "http://www.w3.org/Graphics/SVG/1.1/DTD/svg11.dtd">
<svg version="1.1" id="Capa_1" xmlns="http://www.w3.org/2000/svg" xmlns:xlink="http://www.w3.org/1999/xlink" x="0px" y="0px"
	 width="42.062px" height="42.062px" viewBox="0 0 42.062 42.062" style="enable-background:new 0 0 42.062 42.062;"
	 xml:space="preserve">
<g>
	<g>
		<path d="M41.359,7.631c-1.441-0.597-3.066-0.347-4.607-0.347c-5.377,0-10.755,0-16.131,0c-1.649-0.824-0.383-4.545-1.267-6.048
			c-0.116-0.198-0.357-0.209-0.567-0.204c-3.99,0.104-8.1,4.074-11.34,6.092c-1.22,0.76-9.243,4.283-5.886,6.373
			c4.796,2.985,9.592,5.972,14.388,8.958c3.665,2.279,3.935-2.188,3.935-4.667c0-1.104-0.639-1.141,0.604-1.141
			c1.112,0,2.225,0,3.337,0c3.486,0,6.973,0,10.459,0c2.217,0,7.561,1.072,7.561-2.414C41.844,13.224,42.577,8.137,41.359,7.631z
			 M2.621,11.348c-0.049,0.079-0.09,0.152-0.133,0.229c-0.029-0.132-0.002-0.244,0.12-0.32c0.037-0.022,0.075-0.047,0.112-0.069
			C2.687,11.24,2.653,11.293,2.621,11.348z M5.571,14.188c-0.661-0.422-1.387-0.912-1.973-1.377
			c0.194-0.088,0.382-0.243,0.519-0.462c0.685-1.101,1.367-2.203,2.048-3.309c0.957-0.596,1.913-1.189,2.87-1.786
			c-1.139,2.011-2.281,4.019-3.427,6.023C5.444,13.567,5.451,13.899,5.571,14.188z M12.283,18.343
			c-1.53-0.952-3.061-1.904-4.591-2.857c0.286-0.037,0.553-0.19,0.709-0.467c2.199-3.899,4.419-7.782,6.75-11.585
			c1.168-0.831,2.801-2.465,2.801-0.537c0,1.238-0.363,2.924,0.074,4.102c-1.836,3.52-3.738,7.005-5.692,10.468
			C12.177,17.741,12.177,18.062,12.283,18.343z M17.486,20.674c-0.166,0.271-0.249,0.537-0.259,0.747
			c-0.204-0.127-0.408-0.254-0.611-0.382c0.269-0.047,0.529-0.205,0.692-0.479c0.184-0.309,0.369-0.614,0.555-0.921
			c0.01,0.128,0.018,0.252,0.028,0.372C17.756,20.233,17.622,20.453,17.486,20.674z M15.803,19.624
			c-0.168,0.271-0.191,0.575-0.111,0.842c-0.396-0.247-0.791-0.493-1.187-0.739c-0.393-0.244-0.785-0.488-1.178-0.733
			c0.295-0.031,0.575-0.176,0.748-0.441c2.263-3.495,4.597-6.942,7.001-10.341c0.662,0,1.323,0,1.985,0
			C20.671,12.034,18.187,15.805,15.803,19.624z M20.94,15.515c-0.314,0.042-0.621,0.095-0.911,0.169
			c0.288-0.224,0.604-0.471,0.79-0.762c1.427-2.236,2.865-4.468,4.275-6.712c0.01,0,0.018,0,0.025,0
			c-1.37,2.232-2.737,4.467-4.104,6.701C20.875,15.147,20.855,15.36,20.94,15.515z M24.67,15.48c-0.681-0.047-1.38-0.08-2.063-0.076
			c0.206-0.141,0.392-0.305,0.506-0.492c1.365-2.234,2.73-4.469,4.102-6.701c0.324,0,0.648,0,0.974,0
			c-0.001,0.003-0.004,0.006-0.005,0.008c-1.146,2.228-2.302,4.448-3.47,6.664C24.59,15.114,24.587,15.322,24.67,15.48z
			 M28.301,15.723c-0.128,0-0.266-0.004-0.404-0.01c0.264-0.043,0.467-0.106,0.517-0.183c0.085-0.13,0.108-0.129,0.05,0
			c-0.037,0.081,0.12,0.149,0.369,0.191C28.655,15.723,28.479,15.723,28.301,15.723z M30.137,15.723
			c0.486-0.098,0.998-0.419,1.232-0.821c1.298-2.229,2.593-4.46,3.889-6.69c1.212,0,2.425,0,3.636,0c0.108,0,0.209,0.019,0.3,0.053
			c-0.001,0.001-0.001,0.001-0.001,0.002c-0.41,1.089-0.838,2.174-1.281,3.255c-0.583,1.127-1.181,2.247-1.783,3.365
			c-0.221,0.41-0.073,0.739,0.308,0.838C34.335,15.723,32.236,15.723,30.137,15.723z M39.92,13.81
			c-0.18,0.355-0.354,0.712-0.535,1.065c-0.23,0.454-0.168,0.812,0.12,0.868c-0.329,0.082-0.924-0.021-2.006-0.021
			c-0.04,0-0.079,0-0.119,0c0.476-0.099,0.94-0.432,1.111-0.848c0.204-0.491,0.602-1.272,0.89-1.744
			c0.22-0.357,0.441-0.717,0.66-1.073C40.003,12.761,39.941,13.399,39.92,13.81z"/>
		<path d="M39.804,27.725c-4.661-2.9-9.323-5.804-13.984-8.706c-0.02-0.019-0.047-0.033-0.077-0.048
			c-0.005-0.003-0.01-0.007-0.015-0.01c-0.004-0.002-0.011-0.004-0.015-0.006c-0.004-0.001-0.006-0.003-0.01-0.004
			c-0.104-0.055-0.252-0.068-0.422-0.055c-0.329-0.009-0.657-0.019-0.985-0.026c-0.382-0.01-1.064,0.148-1.279,0.511
			c-0.6,1.015-0.956,5.744-0.506,5.744c-2.576,0-5.152,0-7.73,0c-3.291,0-6.583,0-9.874,0c-1.356,0-2.55-0.143-3.775,0.561
			c-1.67,0.959-1.613,8.891,0.995,8.891c1.13,0,2.259,0,3.389,0c0.095,0.047,0.213,0.072,0.354,0.072h0.289
			c0.142,0,0.29-0.025,0.438-0.072c1.209,0,2.418,0,3.626,0c0.096,0.047,0.214,0.072,0.356,0.072h0.088
			c0.142,0,0.291-0.025,0.439-0.072c0.442,0,0.885,0,1.327,0c0.095,0.047,0.212,0.072,0.354,0.072h0.109
			c0.143,0,0.293-0.025,0.443-0.072c1.192,0,2.386,0,3.579,0c0.095,0.047,0.213,0.072,0.354,0.072H18
			c0.144,0,0.296-0.027,0.449-0.072c0.264,0,0.527,0,0.791,0c3.036,0,3.17,0.229,3.17,3.391c0,1.17,0.096,2.826,1.294,2.996
			c-0.011,0.031-0.018,0.059-0.009,0.061c0.024,0.004,0.05,0.008,0.074,0.008c0.112,0,0.225-0.025,0.332-0.062
			c0.132-0.014,0.27-0.037,0.422-0.082c4.416-1.27,8.774-5.178,12.643-7.586C39.709,31.719,43.641,30.115,39.804,27.725z
			 M18.379,30.947c-0.492,0.877-0.985,1.746-1.481,2.613c-0.778,0-1.557,0-2.335,0c1.327-2.164,2.651-4.328,3.975-6.494
			c0.288-0.471,0.074-0.854-0.479-0.854h-0.1c-0.553,0-1.234,0.381-1.522,0.854c-1.327,2.166-2.655,4.33-3.982,6.494
			c-0.051,0-0.101,0-0.15,0c1.334-2.279,2.679-4.551,4.058-6.797c0.057-0.092,0.114-0.184,0.172-0.275
			c0.096-0.152-0.275-0.275-0.828-0.275h-0.064c-0.553,0-1.238,0.379-1.531,0.848c-0.659,1.055-1.311,2.113-1.947,3.18
			c-0.658,1.102-1.302,2.213-1.948,3.322c-0.81,0-1.619,0-2.428,0c0.81-1.404,1.619-2.811,2.427-4.217
			c0.484-0.77,0.984-1.531,1.48-2.293c0.302-0.463,0.098-0.84-0.455-0.84h-0.338c-0.553,0-1.221,0.391-1.494,0.871
			c-0.439,0.771-0.881,1.547-1.324,2.318c-0.866,1.379-1.715,2.768-2.556,4.158c-0.812,0-1.626,0-2.438,0
			c-0.748,0-0.864-1.689-0.83-3.26c0.616-1.07,1.234-2.141,1.844-3.217c0.272-0.48,0.045-0.871-0.508-0.871H2.359
			c0.061-0.043,0.14-0.072,0.261-0.072c0.979,0,1.958,0,2.938,0c5.292,0,10.585,0,15.877,0c0.227,0,0.479-0.01,0.737-0.033
			c-0.131,0.062-0.273,0.105-0.429,0.105c0,0-0.177,0-0.396,0c-0.219,0-0.607,0.395-0.869,0.881
			C19.787,28.381,19.089,29.668,18.379,30.947z M20.925,33.479c-0.395,0.012-0.789,0.025-1.18,0.045
			c2.199-3.338,4.396-6.676,6.606-10.006c0.305-0.459,0.376-0.422,0.149,0.082c-0.471,1.053-0.964,2.094-1.481,3.121
			C23.679,28.99,22.314,31.242,20.925,33.479z M30.024,34.482c-0.307,0.875-0.616,1.746-0.929,2.619
			c-0.356,0.223-0.713,0.443-1.068,0.664c0.184-0.342,0.367-0.684,0.556-1.025c0.427-0.773,0.855-1.551,1.284-2.326
			C30.134,33.93,30.206,33.963,30.024,34.482z M39.678,30.512c-0.624,0.389-1.249,0.777-1.873,1.166
			c0.267-0.541,0.531-1.084,0.799-1.625c0.242-0.496,0.078-1.123-0.371-1.402s-1.014-0.104-1.258,0.391
			c-0.747,1.512-1.49,3.025-2.229,4.545c-0.088,0.053-0.175,0.107-0.263,0.162c-0.479,0.299-0.959,0.598-1.438,0.896
			c1.186-1.943,2.333-3.912,3.439-5.904c0.268-0.482,0.116-1.104-0.335-1.387c-0.451-0.279-1.029-0.113-1.29,0.373
			c-0.113,0.211-0.228,0.424-0.341,0.635c-0.264,0.486-0.325,0.457-0.125-0.059c0.092-0.236,0.185-0.473,0.276-0.709
			c0.203-0.514-0.012-1.166-0.479-1.459l-0.554-0.344c-0.469-0.293-1.077-0.145-1.359,0.332c-2.63,4.418-5.214,8.863-7.765,13.332
			c-0.107-0.223-0.17-0.584-0.17-1.154c0-1.426,0.652-4.135-1.125-4.66c1.492-2.398,2.896-4.844,4.158-7.357
			c0.462-0.783,0.919-1.568,1.377-2.355c0.278-0.477,0.124-1.1-0.345-1.393l-3.954-2.46c0.005-0.016,0.01-0.026,0.015-0.041
			c3.778,2.353,7.558,4.704,11.336,7.058C35.984,27.201,40.771,29.834,39.678,30.512z"/>
	</g>
</g>
<g>
</g>
<g>
</g>
<g>
</g>
<g>
</g>
<g>
</g>
<g>
</g>
<g>
</g>
<g>
</g>
<g>
</g>
<g>
</g>
<g>
</g>
<g>
</g>
<g>
</g>
<g>
</g>
<g>
</g>
</svg>
